<?xml version="1.0" encoding="utf-8"?>
<!-- Generator: Adobe Illustrator 26.0.1, SVG Export Plug-In . SVG Version: 6.00 Build 0)  -->
<svg version="1.1" id="Layer_1" xmlns="http://www.w3.org/2000/svg" xmlns:xlink="http://www.w3.org/1999/xlink" x="0px" y="0px"
	 viewBox="0 0 40 40" style="enable-background:new 0 0 40 40;" xml:space="preserve">
<style type="text/css">
	.st0{fill:#434A54;}
</style>
<g>
	<g>
		<path class="st0" d="M30.2,37.5c-5.3,0-9.6-4.3-9.6-9.6c0-5.3,4.3-9.6,9.6-9.6c5.3,0,9.6,4.3,9.6,9.6
			C39.8,33.2,35.5,37.5,30.2,37.5z M30.2,19.9c-4.4,0-8,3.6-8,8s3.6,8,8,8c4.4,0,8-3.6,8-8S34.6,19.9,30.2,19.9z"/>
	</g>
	<g>
		<path class="st0" d="M28.6,33.5c-0.4,0-0.8-0.2-1.1-0.5L25,30.4c-0.6-0.6-0.6-1.6,0.1-2.2c0.6-0.6,1.6-0.6,2.2,0.1l1.3,1.4
			l4.5-5.5c0.5-0.7,1.5-0.8,2.2-0.2c0.7,0.5,0.8,1.5,0.2,2.2l-5.6,6.8C29.5,33.3,29.1,33.5,28.6,33.5C28.7,33.5,28.6,33.5,28.6,33.5
			z"/>
	</g>
	<g>
		<path class="st0" d="M27.6,10.7c-0.9,0-1.5-0.7-1.5-1.5V4c0-0.9,0.7-1.5,1.5-1.5c0.9,0,1.5,0.7,1.5,1.5v5.1
			C29.1,10,28.4,10.7,27.6,10.7z"/>
	</g>
	<g>
		<path class="st0" d="M7.9,10.7C7,10.7,6.3,10,6.3,9.2V4c0-0.9,0.7-1.5,1.5-1.5c0.9,0,1.5,0.7,1.5,1.5v5.1
			C9.4,10,8.7,10.7,7.9,10.7z"/>
	</g>
	<g>
		<path class="st0" d="M33.4,15.7H2c-0.4,0-0.8-0.3-0.8-0.8s0.3-0.8,0.8-0.8h31.4c0.4,0,0.8,0.3,0.8,0.8S33.8,15.7,33.4,15.7z"/>
	</g>
	<polygon class="st0" points="9,18.8 6,18.8 6,21.8 9,21.8 9,18.8 	"/>
	<polygon class="st0" points="14.2,18.8 11.2,18.8 11.2,21.8 14.2,21.8 14.2,18.8 	"/>
	<polygon class="st0" points="19.4,18.8 16.4,18.8 16.4,21.8 19.4,21.8 19.4,18.8 	"/>
	<polygon class="st0" points="24.6,18.8 21.6,18.8 21.6,21.8 24.6,21.8 24.6,18.8 	"/>
	<polygon class="st0" points="9,23.6 6,23.6 6,26.6 9,26.6 9,23.6 	"/>
	<polygon class="st0" points="14.2,23.6 11.2,23.6 11.2,26.6 14.2,26.6 14.2,23.6 	"/>
	<polygon class="st0" points="19.4,23.6 16.4,23.6 16.4,26.6 19.4,26.6 19.4,23.6 	"/>
	<g>
		<path class="st0" d="M22.2,33.3H1.8c-0.9,0-1.5-0.7-1.5-1.5V6.6C0.2,5.7,0.9,5,1.8,5h31.7C34.3,5,35,5.7,35,6.6v13.2h-3.1V8.1H3.3
			v22.1h18.8V33.3z"/>
	</g>
</g>
</svg>
