<?xml version="1.0" encoding="utf-8"?>
<!-- Generator: Adobe Illustrator 26.0.1, SVG Export Plug-In . SVG Version: 6.00 Build 0)  -->
<svg version="1.1" id="Layer_1" xmlns="http://www.w3.org/2000/svg" xmlns:xlink="http://www.w3.org/1999/xlink" x="0px" y="0px"
	 viewBox="0 0 40 40" style="enable-background:new 0 0 40 40;" xml:space="preserve">
<style type="text/css">
	.st0{fill:#434A54;}
</style>
<g>
	<g>
		<path class="st0" d="M13.5,18.9c-4.1,0-7.5-3.8-7.5-8.4c0-4.6,3.4-8.4,7.5-8.4c4.1,0,7.5,3.8,7.5,8.4
			C20.9,15.2,17.6,18.9,13.5,18.9z M13.5,5.6c-2.2,0-4,2.2-4,4.9c0,2.7,1.8,4.9,4,4.9c2.2,0,4-2.2,4-4.9C17.5,7.8,15.7,5.6,13.5,5.6
			z"/>
	</g>
	<g>
		<path class="st0" d="M24.4,37.8H2.2c-0.9,0-1.7-0.7-1.7-1.6L0,29.1c-0.2-2.8,1.9-5.8,4.6-6.8c5.6-2,11.8-2,17.4,0
			c2.7,1,4.8,4.1,4.6,6.9l-0.5,7.2C26.1,37.1,25.3,37.8,24.4,37.8z M3.8,34.4h19l0.4-5.6c0.1-1.1-1-2.9-2.4-3.4
			c-4.8-1.7-10.2-1.7-15,0c-1.4,0.5-2.4,2.3-2.3,3.4L3.8,34.4z"/>
	</g>
	<g>
		<path class="st0" d="M24.4,37.8H2.2c-0.9,0-1.7-0.7-1.7-1.6L0,29.1c-0.2-2.8,1.9-5.8,4.6-6.8c5.6-2,11.8-2,17.4,0
			c2.7,1,4.8,4.1,4.6,6.9l-0.5,7.2C26.1,37.1,25.3,37.8,24.4,37.8z M3.8,34.4h19l0.4-5.6c0.1-1.1-1-2.9-2.4-3.4
			c-4.8-1.7-10.2-1.7-15,0c-1.4,0.5-2.4,2.3-2.3,3.4L3.8,34.4z"/>
	</g>
	<g>
		<path class="st0" d="M37.8,37.8H29c-1,0-1.7-0.8-1.7-1.7c0-1,0.8-1.7,1.7-1.7h7.2l0.3-4.6c0.1-0.9-0.8-2.3-1.9-2.7
			c-1.9-0.7-4-1.1-6-1.1c-1,0-1.7-0.8-1.7-1.8c0-1,0.8-1.7,1.8-1.7c2.5,0,4.9,0.5,7.2,1.3c2.5,0.9,4.3,3.7,4.1,6.2l-0.4,6.2
			C39.5,37.1,38.7,37.8,37.8,37.8z"/>
	</g>
	<g>
		<path class="st0" d="M31,20.7c-3.4,0-6.2-3.1-6.2-6.9s2.8-6.9,6.2-6.9c3.4,0,6.2,3.1,6.2,6.9S34.5,20.7,31,20.7z M31,10.4
			c-1.5,0-2.8,1.6-2.8,3.5c0,1.9,1.2,3.5,2.8,3.5c1.5,0,2.8-1.6,2.8-3.5C33.8,11.9,32.6,10.4,31,10.4z"/>
	</g>
</g>
</svg>
