<?xml version="1.0" encoding="utf-8"?>
<!-- Generator: Adobe Illustrator 26.0.1, SVG Export Plug-In . SVG Version: 6.00 Build 0)  -->
<svg version="1.1" id="Layer_1" xmlns="http://www.w3.org/2000/svg" xmlns:xlink="http://www.w3.org/1999/xlink" x="0px" y="0px"
	 viewBox="0 0 40 40" style="enable-background:new 0 0 40 40;" xml:space="preserve">
<style type="text/css">
	.st0{fill:#434A54;}
</style>
<g>
	<circle class="st0" cx="11.9" cy="20.9" r="1.4"/>
	<g>
		<path class="st0" d="M27.2,18.5c-0.2,0-0.5-0.1-0.7-0.2c-2.5-1.4-5.5-2-8.6-1.7c-0.8,0.1-1.5-0.5-1.5-1.3
			c-0.1-0.8,0.5-1.5,1.3-1.5c3.6-0.3,7.2,0.4,10.2,2.1c0.7,0.4,0.9,1.3,0.6,1.9C28.2,18.3,27.7,18.5,27.2,18.5z"/>
	</g>
	<g>
		<path class="st0" d="M23.7,16.9c-4.5,0-8.2-3.7-8.2-8.2s3.7-8.2,8.2-8.2c4.5,0,8.2,3.7,8.2,8.2S28.2,16.9,23.7,16.9z M23.7,3.5
			c-2.9,0-5.2,2.3-5.2,5.2c0,2.9,2.3,5.2,5.2,5.2c2.9,0,5.2-2.3,5.2-5.2C28.9,5.9,26.5,3.5,23.7,3.5z"/>
	</g>
	<g>
		<path class="st0" d="M23.7,12.7c-2.2,0-3.9-1.8-3.9-3.9s1.8-3.9,3.9-3.9c2.2,0,3.9,1.8,3.9,3.9S25.8,12.7,23.7,12.7z M23.7,6.3
			c-1.3,0-2.4,1.1-2.4,2.4c0,1.3,1.1,2.4,2.4,2.4c1.3,0,2.4-1.1,2.4-2.4C26.1,7.4,25,6.3,23.7,6.3z"/>
	</g>
	<g>
		<path class="st0" d="M28.6,39.5h-2.3c-1.6,0-3-1.1-3.3-2.7c-1.9,0.3-3.8,0.3-5.7,0.1c-0.4,1.5-1.7,2.6-3.3,2.6h-2.3
			c-1.9,0-3.4-1.5-3.4-3.4v-3C7,31.8,5.8,30.2,5,28.5c-1.8-0.1-3.2-1.6-3.2-3.4v-2.3c0-1.8,1.4-3.3,3.2-3.4c0.8-1.7,2-3.3,3.5-4.6
			v-2.3c0-0.5,0.3-1,0.8-1.3c1.7-0.9,3.7-0.7,5.1,0.5c1.2-0.4,2.4-0.6,3.7-0.7l0.3,2.9c-1.3,0.1-2.6,0.4-3.8,0.9
			c-0.6,0.2-1.2,0-1.6-0.5c-0.4-0.5-0.9-0.7-1.5-0.7v1.9c0,0.4-0.2,0.9-0.6,1.1c-1.7,1.3-2.9,2.9-3.5,4.7c-0.2,0.6-0.7,1-1.4,1H5.1
			c-0.3,0-0.5,0.2-0.5,0.5v2.3c0,0.3,0.2,0.5,0.5,0.5H6c0.6,0,1.2,0.4,1.4,1c0.6,1.8,1.8,3.4,3.5,4.7c0.4,0.3,0.6,0.7,0.6,1.1v3.7
			c0,0.3,0.2,0.5,0.5,0.5h2.3c0.3,0,0.5-0.2,0.5-0.5v-0.9c0-0.4,0.2-0.8,0.5-1.1c0.3-0.3,0.8-0.4,1.2-0.3c2.5,0.6,5.2,0.5,7.7-0.1
			c0.4-0.1,0.9,0,1.2,0.3c0.4,0.3,0.6,0.7,0.6,1.1v1.1c0,0.3,0.2,0.5,0.5,0.5h2.3c0.3,0,0.5-0.2,0.5-0.5v-4.2c0-0.4,0.2-0.8,0.5-1.1
			C31.8,29,33,26.5,33,24c0-0.3,0.1-0.7,0.3-0.9c-0.3-0.2-0.4-0.5-0.5-0.8c-0.6-2.8-2.8-5.3-5.9-6.8l1.3-2.6
			c2.8,1.4,4.9,3.4,6.3,5.8c0-0.6,0.3-1.1,0.8-1.3c0.6-0.3,1.2-0.2,1.7,0.3c0.9,0.9,1.3,2,1.3,3.2c0,1.7-0.9,3.3-2.4,4.1
			c-0.2,2.9-1.6,5.5-3.8,7.7v3.6C32,38,30.5,39.5,28.6,39.5z"/>
	</g>
</g>
</svg>
