<?xml version="1.0" encoding="utf-8"?>
<!-- Generator: Adobe Illustrator 26.0.1, SVG Export Plug-In . SVG Version: 6.00 Build 0)  -->
<svg version="1.1" id="Layer_1" xmlns="http://www.w3.org/2000/svg" xmlns:xlink="http://www.w3.org/1999/xlink" x="0px" y="0px"
	 viewBox="0 0 40 40" style="enable-background:new 0 0 40 40;" xml:space="preserve">
<style type="text/css">
	.st0{fill:#434A54;}
</style>
<g>
	<g>
		<path class="st0" d="M20.1,18.9c-3.3,0-6-3-6-6.6c0-3.7,2.7-6.6,6-6.6c3.3,0,6,3,6,6.6C26.1,15.9,23.4,18.9,20.1,18.9z M20.1,8.8
			c-1.6,0-2.8,1.6-2.8,3.5c0,1.9,1.3,3.5,2.8,3.5c1.6,0,2.8-1.6,2.8-3.5C22.9,10.4,21.7,8.8,20.1,8.8z"/>
	</g>
	<g>
		<path class="st0" d="M28.5,34.4H11.6c-0.8,0-1.5-0.6-1.6-1.5c-0.1-1.8-0.3-3.7-0.4-5.5c-0.1-2.2,1.5-4.7,3.7-5.5
			c4.3-1.6,9.1-1.6,13.4,0c2.2,0.8,3.8,3.3,3.7,5.5L30,32.9C30,33.7,29.3,34.4,28.5,34.4z M13,31.2h14l0.3-4c0-0.7-0.6-1.9-1.6-2.3
			c-3.6-1.3-7.6-1.3-11.3,0c-1,0.4-1.7,1.6-1.6,2.3C12.8,28.5,12.9,29.9,13,31.2z"/>
	</g>
	<g>
		<path class="st0" d="M28.5,34.4H11.6c-0.8,0-1.5-0.6-1.6-1.5c-0.1-1.8-0.3-3.7-0.4-5.5c-0.1-2.2,1.5-4.7,3.7-5.5
			c4.3-1.6,9.1-1.6,13.4,0c2.2,0.8,3.8,3.3,3.7,5.5L30,32.9C30,33.7,29.3,34.4,28.5,34.4z M13,31.2h14l0.3-4c0-0.7-0.6-1.9-1.6-2.3
			c-3.6-1.3-7.6-1.3-11.3,0c-1,0.4-1.7,1.6-1.6,2.3C12.8,28.5,12.9,29.9,13,31.2z"/>
	</g>
	<g>
		<path class="st0" d="M38.7,31.8H32c-0.4,0-0.8-0.4-0.8-0.8s0.4-0.8,0.8-0.8h6l0.3-4c0.1-0.9-0.7-2.2-1.8-2.6
			c-1.5-0.5-3.1-0.8-4.8-0.9c-0.4,0-0.8-0.4-0.8-0.8c0-0.4,0.4-0.8,0.8-0.8c0,0,0,0,0,0c1.8,0,3.6,0.4,5.3,1
			c1.6,0.6,2.9,2.5,2.8,4.2l-0.3,4.7C39.5,31.5,39.1,31.8,38.7,31.8z"/>
	</g>
	<g>
		<path class="st0" d="M33.5,19.5c-2.3,0-4.2-2.1-4.2-4.7c0-2.6,1.9-4.7,4.2-4.7c2.3,0,4.2,2.1,4.2,4.7
			C37.7,17.4,35.8,19.5,33.5,19.5z M33.5,11.6c-1.5,0-2.6,1.4-2.6,3.2c0,1.7,1.2,3.2,2.6,3.2c1.5,0,2.6-1.4,2.6-3.2
			C36.2,13,35,11.6,33.5,11.6z"/>
	</g>
	<g>
		<path class="st0" d="M8,31.8H1.3c-0.4,0-0.8-0.3-0.8-0.7l-0.3-4.7c-0.1-1.6,1.2-3.6,2.8-4.2c1.7-0.6,3.5-0.9,5.3-1
			c0.5-0.1,0.8,0.3,0.8,0.8c0,0.4-0.3,0.8-0.8,0.8c-1.6,0-3.3,0.3-4.8,0.9c-1.1,0.4-1.8,1.7-1.8,2.6l0.3,4h6c0.4,0,0.8,0.4,0.8,0.8
			S8.5,31.8,8,31.8z"/>
	</g>
	<g>
		<path class="st0" d="M6.5,19.5c-2.3,0-4.2-2.1-4.2-4.7c0-2.6,1.9-4.7,4.2-4.7c2.3,0,4.2,2.1,4.2,4.7C10.7,17.4,8.8,19.5,6.5,19.5z
			 M6.5,11.6c-1.5,0-2.6,1.4-2.6,3.2c0,1.7,1.2,3.2,2.6,3.2c1.5,0,2.6-1.4,2.6-3.2C9.1,13,7.9,11.6,6.5,11.6z"/>
	</g>
</g>
</svg>
