<?xml version="1.0" encoding="utf-8"?>
<!-- Generator: Adobe Illustrator 26.0.1, SVG Export Plug-In . SVG Version: 6.00 Build 0)  -->
<svg version="1.1" id="Layer_1" xmlns="http://www.w3.org/2000/svg" xmlns:xlink="http://www.w3.org/1999/xlink" x="0px" y="0px"
	 viewBox="0 0 40 40" style="enable-background:new 0 0 40 40;" xml:space="preserve">
<style type="text/css">
	.st0{fill:#434A54;}
</style>
<g>
	<g>
		<path class="st0" d="M21.5,14.4h-5.7c-0.6,0-1.1-0.3-1.4-0.8l-2.1-3.5c-0.2-0.4-0.3-0.8-0.2-1.3l2.1-7.3c0.2-0.7,0.8-1.2,1.5-1.2
			h5.7c0.9,0,1.6,0.7,1.6,1.6c0,0.9-0.7,1.6-1.6,1.6H17l-1.6,5.5l1.3,2.1h4.8c0.9,0,1.6,0.7,1.6,1.6C23.1,13.7,22.4,14.4,21.5,14.4z
			"/>
	</g>
	<g>
		<path class="st0" d="M24.3,14.4h-5.7c-0.9,0-1.6-0.7-1.6-1.6c0-0.9,0.7-1.6,1.6-1.6h4.8l1.3-2.1l-1.6-5.5h-4.5
			C17.7,3.6,17,2.9,17,2c0-0.9,0.7-1.6,1.6-1.6h5.7c0.7,0,1.3,0.5,1.5,1.2l2.1,7.3c0.1,0.4,0.1,0.9-0.2,1.3l-2.1,3.5
			C25.4,14.1,24.9,14.4,24.3,14.4z"/>
	</g>
	<g>
		<path class="st0" d="M20,39.6c-0.3,0-0.7-0.1-0.9-0.3l-8.4-6.1c-0.5-0.4-0.8-1-0.6-1.6l4.2-19.2c0.2-0.7,0.8-1.3,1.6-1.3h8.4
			c0.8,0,1.4,0.5,1.6,1.3L30,31.6c0.1,0.6-0.1,1.3-0.6,1.6l-8.4,6.1C20.7,39.5,20.3,39.6,20,39.6z M13.4,31.2L20,36l6.6-4.8
			l-3.7-16.9h-5.9L13.4,31.2z"/>
	</g>
</g>
</svg>
