<?xml version="1.0" encoding="utf-8"?>
<!-- Generator: Adobe Illustrator 26.0.1, SVG Export Plug-In . SVG Version: 6.00 Build 0)  -->
<svg version="1.1" id="Layer_1" xmlns="http://www.w3.org/2000/svg" xmlns:xlink="http://www.w3.org/1999/xlink" x="0px" y="0px"
	 viewBox="0 0 40 40" style="enable-background:new 0 0 40 40;" xml:space="preserve">
<style type="text/css">
	.st0{fill:#434A54;}
</style>
<g>
	<g>
		<path class="st0" d="M8.1,38.1c-0.5,0-1,0-1.5-0.1C5.8,38,5.2,37.4,5,36.7c-0.1-0.8,0.2-1.5,0.9-1.9c1.5-0.8,2.8-1.8,3.7-3
			C3.7,28.9,0,23.7,0,18C0,9.1,9,1.9,20,1.9c11,0,20,7.2,20,16.1c0,8.9-9,16.1-20,16.1c-0.3,0-0.5,0-0.8,0
			C16.4,36.7,12.5,38.1,8.1,38.1z M20,5.3C10.9,5.3,3.4,11,3.4,18c0,4.8,3.7,9.3,9.3,11.4c0.5,0.2,0.8,0.5,1,1
			c0.2,0.5,0.2,1-0.1,1.4L13.6,32c-0.1,0.2-0.2,0.4-0.3,0.7c-0.3,0.5-0.6,1-1,1.5c2-0.6,3.7-1.6,5.1-3c0.3-0.4,0.8-0.5,1.3-0.5
			c0.4,0,0.9,0.1,1.3,0.1c9.1,0,16.6-5.7,16.6-12.7S29.1,5.3,20,5.3z"/>
	</g>
	<g>
		<path class="st0" d="M12.3,16.1c-1.4,0-2.5,1.1-2.5,2.5s1.1,2.5,2.5,2.5c1.4,0,2.5-1.1,2.5-2.5S13.7,16.1,12.3,16.1L12.3,16.1z"/>
		<path class="st0" d="M20,16.1c-1.4,0-2.5,1.1-2.5,2.5s1.1,2.5,2.5,2.5c1.4,0,2.5-1.1,2.5-2.5S21.4,16.1,20,16.1L20,16.1z"/>
		<path class="st0" d="M27.7,16.1c-1.4,0-2.5,1.1-2.5,2.5s1.1,2.5,2.5,2.5c1.4,0,2.5-1.1,2.5-2.5S29.1,16.1,27.7,16.1L27.7,16.1z"/>
	</g>
</g>
</svg>
