<?xml version="1.0" encoding="utf-8"?>
<!-- Generator: Adobe Illustrator 26.0.1, SVG Export Plug-In . SVG Version: 6.00 Build 0)  -->
<svg version="1.1" id="Layer_1" xmlns="http://www.w3.org/2000/svg" xmlns:xlink="http://www.w3.org/1999/xlink" x="0px" y="0px"
	 viewBox="0 0 40 40" style="enable-background:new 0 0 40 40;" xml:space="preserve">
<style type="text/css">
	.st0{fill:#434A54;}
</style>
<g>
	<g>
		<g>
			<path class="st0" d="M2.2,36.6c-0.3,0-0.5-0.1-0.8-0.2C0.7,36,0.3,35,0.7,34.1l0.5-0.9c1.5-2.8,1.9-3.7,2.6-13.2
				C4.6,10.6,11.1,4,19.6,4c0,0,0,0,0,0h1c0.9,0,1.7,0.8,1.7,1.7c0,0.9-0.8,1.7-1.7,1.7h-1c0,0,0,0,0,0c-6.8,0-11.8,5.2-12.4,13
				c-0.8,9.8-1.2,11.1-3,14.5l-0.5,0.9C3.4,36.3,2.9,36.6,2.2,36.6z"/>
		</g>
		<g>
			<path class="st0" d="M37.8,36.6c-0.6,0-1.2-0.3-1.5-0.9l-0.5-0.9c-1.7-3.3-2.2-4.7-3-14.4c-0.6-7.8-5.6-13-12.4-13c0,0,0,0,0,0
				h-1c-0.9,0-1.7-0.8-1.7-1.7c0-0.9,0.8-1.7,1.7-1.7h1c0,0,0,0,0,0c8.6,0,15.1,6.6,15.8,16.1c0.7,9.5,1.2,10.4,2.6,13.2l0.5,0.9
				c0.4,0.8,0.1,1.8-0.7,2.3C38.3,36.5,38,36.6,37.8,36.6z"/>
		</g>
	</g>
	<g>
		<path class="st0" d="M38,36.6c-0.1,0-0.2,0-0.3,0C26,34.2,14,34.2,2.3,36.6c-0.9,0.2-1.8-0.4-2-1.3c-0.2-0.9,0.4-1.8,1.3-2
			c12.2-2.5,24.6-2.5,36.8,0c0.9,0.2,1.5,1.1,1.3,2C39.5,36.1,38.8,36.6,38,36.6z"/>
	</g>
	<g>
		<path class="st0" d="M20,7c-0.9,0-1.7-0.8-1.7-1.7V1.9c0-0.9,0.8-1.7,1.7-1.7c0.9,0,1.7,0.8,1.7,1.7v3.4C21.7,6.2,20.9,7,20,7z"/>
	</g>
	<g>
		<path class="st0" d="M20,39.8c-2.8,0-5-2.3-5-5c0-0.9,0.8-1.7,1.7-1.7c0.9,0,1.7,0.8,1.7,1.7c0,0.9,0.7,1.7,1.7,1.7
			c0.9,0,1.7-0.7,1.7-1.7c0-0.9,0.8-1.7,1.7-1.7c0.9,0,1.7,0.8,1.7,1.7C25,37.5,22.8,39.8,20,39.8z"/>
	</g>
</g>
</svg>
