<?xml version="1.0" encoding="utf-8"?>
<!-- Generator: Adobe Illustrator 26.0.1, SVG Export Plug-In . SVG Version: 6.00 Build 0)  -->
<svg version="1.1" id="Layer_1" xmlns="http://www.w3.org/2000/svg" xmlns:xlink="http://www.w3.org/1999/xlink" x="0px" y="0px"
	 viewBox="0 0 40 40" style="enable-background:new 0 0 40 40;" xml:space="preserve">
<style type="text/css">
	.st0{fill:#434A54;}
</style>
<g>
	<g>
		<g>
			<path class="st0" d="M19.3,14.4c-1.9,0-3.7-0.7-5.1-2.1c-1.4-1.4-2.1-3.2-2.1-5.1s0.7-3.7,2.1-5.1C15.6,0.7,17.4,0,19.3,0
				s3.7,0.7,5.1,2.1c1.4,1.4,2.1,3.2,2.1,5.1s-0.7,3.7-2.1,5.1C23.1,13.7,21.2,14.4,19.3,14.4z M19.3,1.4c-1.6,0-3,0.6-4.1,1.7
				c-1.1,1.1-1.7,2.6-1.7,4.1s0.6,3,1.7,4.1c1.1,1.1,2.6,1.7,4.1,1.7c1.6,0,3-0.6,4.1-1.7c1.1-1.1,1.7-2.6,1.7-4.1s-0.6-3-1.7-4.1
				C22.3,2,20.9,1.4,19.3,1.4z"/>
		</g>
		<path class="st0" d="M19.3,3.3c-0.7,0-1.4,0.2-1.8,0.6c-0.6,0.5-0.4,1.3-0.4,1.6c0,0.2,0.1,0.4,0.1,0.7c0,0-0.1,0-0.1,0
			c0,0,0,0,0,0c-0.1,0-0.2,0.1-0.2,0.2L17,7.6c0,0.1,0.1,0.2,0.2,0.2c0,0,0,0,0,0c0.1,0,0.1,0,0.1-0.1c0,0.3,0.1,0.5,0.1,0.8
			c0,0.2,0.2,0.4,0.5,0.6C18,9.4,18,9.7,18,9.9c-1.2,0.1-2.3,0.5-3.4,1c-0.2,0.1-0.3,0.2-0.4,0.4c0.1,0.2,0.3,0.3,0.5,0.5
			c1.3,1.3,2.9,1.9,4.6,1.9c1.7,0,3.3-0.6,4.6-1.9c0.2-0.2,0.3-0.3,0.4-0.5c-0.1-0.2-0.2-0.3-0.4-0.4c-1.1-0.5-2.2-0.8-3.4-1
			c0-0.3,0.1-0.5,0.1-0.8c0.3-0.2,0.4-0.4,0.5-0.6c0-0.3,0.1-0.5,0.1-0.8c0,0,0.1,0.1,0.1,0.1c0,0,0,0,0,0c0.1,0,0.2-0.1,0.2-0.2
			l0.1-1.2c0-0.1-0.1-0.2-0.2-0.2c0,0,0,0,0,0c0,0-0.1,0-0.1,0c0-0.2,0.1-0.4,0.1-0.7c0-0.3,0.2-1.1-0.4-1.6
			C20.7,3.5,20,3.3,19.3,3.3L19.3,3.3z"/>
	</g>
	<g>
		<g>
			<g>
				<path class="st0" d="M9.4,32.9c-1.9,0-3.7-0.7-5.1-2.1c-1.4-1.4-2.1-3.2-2.1-5.1S3,22,4.3,20.6c1.4-1.4,3.2-2.1,5.1-2.1
					c1.9,0,3.7,0.7,5.1,2.1c1.4,1.4,2.1,3.2,2.1,5.1s-0.7,3.7-2.1,5.1C13.1,32.2,11.3,32.9,9.4,32.9z M9.4,19.9
					c-1.6,0-3,0.6-4.1,1.7c-1.1,1.1-1.7,2.6-1.7,4.1c0,1.6,0.6,3,1.7,4.1c1.1,1.1,2.6,1.7,4.1,1.7c1.6,0,3-0.6,4.1-1.7
					c1.1-1.1,1.7-2.6,1.7-4.1c0-1.6-0.6-3-1.7-4.1C12.4,20.5,11,19.9,9.4,19.9z"/>
			</g>
			<path class="st0" d="M9.4,21.8c-0.7,0-1.4,0.2-1.8,0.6c-0.6,0.5-0.4,1.3-0.4,1.6c0,0.2,0.1,0.4,0.1,0.7c0,0-0.1,0-0.1,0
				c0,0,0,0,0,0c-0.1,0-0.2,0.1-0.2,0.2l0.1,1.2c0,0.1,0.1,0.2,0.2,0.2c0,0,0,0,0,0c0.1,0,0.1,0,0.1-0.1c0,0.3,0.1,0.5,0.1,0.8
				c0,0.2,0.2,0.4,0.5,0.6c0,0.3,0.1,0.6,0.1,0.8c-1.2,0.1-2.3,0.5-3.4,1c-0.2,0.1-0.3,0.2-0.4,0.4c0.1,0.2,0.3,0.3,0.5,0.5
				c1.3,1.3,2.9,1.9,4.6,1.9c1.7,0,3.3-0.6,4.6-1.9c0.2-0.2,0.3-0.3,0.4-0.5c-0.1-0.2-0.2-0.3-0.4-0.4c-1.1-0.5-2.2-0.8-3.4-1
				c0-0.3,0.1-0.5,0.1-0.8c0.3-0.2,0.4-0.4,0.5-0.6c0-0.3,0.1-0.5,0.1-0.8c0,0,0.1,0.1,0.1,0.1c0,0,0,0,0,0c0.1,0,0.2-0.1,0.2-0.2
				l0.1-1.2c0-0.1-0.1-0.2-0.2-0.2c0,0,0,0,0,0c0,0-0.1,0-0.1,0c0-0.2,0.1-0.4,0.1-0.7c0-0.3,0.2-1.1-0.4-1.6
				C10.8,22,10.1,21.8,9.4,21.8L9.4,21.8z"/>
		</g>
		<g>
			<g>
				<path class="st0" d="M29.2,32.9c-1.9,0-3.7-0.7-5.1-2.1c-1.4-1.4-2.1-3.2-2.1-5.1c0-1.9,0.8-3.7,2.1-5.1
					c1.4-1.4,3.2-2.1,5.1-2.1s3.7,0.7,5.1,2.1c1.4,1.4,2.1,3.2,2.1,5.1s-0.7,3.7-2.1,5.1C33,32.2,31.2,32.9,29.2,32.9z M29.2,19.9
					c-1.5,0-3,0.6-4.1,1.7c-1.1,1.1-1.7,2.6-1.7,4.1c0,1.6,0.6,3,1.7,4.1c1.1,1.1,2.6,1.7,4.1,1.7c1.6,0,3-0.6,4.1-1.7
					c1.1-1.1,1.7-2.6,1.7-4.1c0-1.6-0.6-3-1.7-4.1C32.2,20.5,30.8,19.9,29.2,19.9z"/>
			</g>
			<path class="st0" d="M29.2,21.8c-0.7,0-1.4,0.2-1.8,0.6c-0.6,0.5-0.4,1.3-0.4,1.6c0,0.2,0.1,0.4,0.1,0.7c0,0-0.1,0-0.1,0
				c0,0,0,0,0,0c-0.1,0-0.2,0.1-0.2,0.2l0.1,1.2c0,0.1,0.1,0.2,0.2,0.2c0,0,0,0,0,0c0.1,0,0.1,0,0.1-0.1c0,0.3,0.1,0.5,0.1,0.8
				c0,0.2,0.2,0.4,0.5,0.6c0,0.3,0.1,0.6,0.1,0.8c-1.2,0.1-2.3,0.5-3.4,1c-0.2,0.1-0.3,0.2-0.4,0.4c0.1,0.2,0.3,0.3,0.4,0.5
				c1.3,1.3,2.9,1.9,4.6,1.9c1.7,0,3.3-0.6,4.6-1.9c0.2-0.2,0.3-0.3,0.4-0.5c-0.1-0.2-0.2-0.3-0.4-0.4c-1.1-0.5-2.2-0.8-3.4-1
				c0-0.3,0.1-0.5,0.1-0.8c0.3-0.2,0.4-0.4,0.5-0.6c0-0.3,0.1-0.5,0.1-0.8c0,0,0.1,0.1,0.1,0.1c0,0,0,0,0,0c0.1,0,0.2-0.1,0.2-0.2
				l0.1-1.2c0-0.1-0.1-0.2-0.2-0.2c0,0,0,0,0,0c0,0-0.1,0-0.1,0c0-0.2,0.1-0.4,0.1-0.7c0-0.3,0.2-1.1-0.4-1.6
				C30.6,22,29.9,21.8,29.2,21.8L29.2,21.8z"/>
		</g>
	</g>
	<g>
		<g>
			<path class="st0" d="M33.5,17.2c-0.2,0-0.4-0.1-0.5-0.2l-3.6-3.6c-0.3-0.3-0.3-0.7,0-1c0.3-0.3,0.7-0.3,1,0l3.1,3.1l3.1-3.1
				c0.3-0.3,0.7-0.3,1,0c0.3,0.3,0.3,0.7,0,1L34,17C33.9,17.1,33.7,17.2,33.5,17.2z"/>
		</g>
		<g>
			<g>
				<path class="st0" d="M33.8,15.8C33.8,15.8,33.8,15.8,33.8,15.8c-0.4,0-0.7-0.3-0.7-0.7c0.1-3.9-3.1-7.2-7-7.2
					c-0.4,0-0.7-0.3-0.7-0.7c0-0.4,0.3-0.7,0.7-0.7c0,0,0,0,0,0c4.7,0.1,8.5,3.9,8.4,8.6C34.5,15.5,34.1,15.8,33.8,15.8z"/>
			</g>
		</g>
	</g>
	<g>
		<g>
			<path class="st0" d="M9.4,14.2c-0.1,0-0.1,0-0.2,0c-0.4-0.1-0.6-0.5-0.5-0.9l1.1-4.2L5.7,8C5.3,7.9,5.1,7.5,5.2,7.1
				c0.1-0.4,0.5-0.6,0.9-0.5L10.9,8c0.4,0.1,0.6,0.5,0.5,0.9l-1.3,4.9C10,14,9.7,14.2,9.4,14.2z"/>
		</g>
		<g>
			<g>
				<path class="st0" d="M6.4,20.4c-0.2,0-0.5-0.1-0.6-0.4C3.5,16,5,10.8,9.1,8.5c0.3-0.2,0.8-0.1,1,0.3c0.2,0.3,0.1,0.8-0.3,1
					C6.4,11.6,5.1,16,7,19.4c0.2,0.3,0.1,0.8-0.3,1C6.7,20.4,6.5,20.4,6.4,20.4z"/>
			</g>
		</g>
	</g>
	<g>
		<g>
			<path class="st0" d="M16.7,40c-0.3,0-0.6-0.2-0.7-0.5l-1.3-4.9c-0.1-0.4,0.1-0.8,0.5-0.9l4.9-1.3c0.4-0.1,0.8,0.1,0.9,0.5
				c0.1,0.4-0.1,0.8-0.5,0.9l-4.2,1.1l1.1,4.2c0.1,0.4-0.1,0.8-0.5,0.9C16.9,40,16.8,40,16.7,40z"/>
		</g>
		<g>
			<g>
				<path class="st0" d="M20.5,37.1c-1.5,0-3-0.4-4.3-1.2c-0.3-0.2-0.4-0.6-0.2-1c0.2-0.3,0.6-0.4,1-0.2c1.6,1,3.5,1.3,5.4,0.8
					c1.8-0.5,3.4-1.6,4.4-3.3c0.2-0.3,0.6-0.4,1-0.2c0.3,0.2,0.4,0.6,0.2,1c-1.2,2-3,3.3-5.2,3.9C21.9,37.1,21.2,37.1,20.5,37.1z"/>
			</g>
		</g>
	</g>
</g>
</svg>
