<?xml version="1.0" encoding="utf-8"?>
<!-- Generator: Adobe Illustrator 26.0.1, SVG Export Plug-In . SVG Version: 6.00 Build 0)  -->
<svg version="1.1" id="Layer_1" xmlns="http://www.w3.org/2000/svg" xmlns:xlink="http://www.w3.org/1999/xlink" x="0px" y="0px"
	 viewBox="0 0 40 40" style="enable-background:new 0 0 40 40;" xml:space="preserve">
<style type="text/css">
	.st0{fill:#434A54;}
</style>
<g>
	<g>
		<path class="st0" d="M20,40c-5.3,0-10.4-2.1-14.1-5.9c-7.8-7.8-7.8-20.5,0-28.3C9.6,2.1,14.7,0,20,0s10.4,2.1,14.1,5.9
			c7.8,7.8,7.8,20.5,0,28.3C30.4,37.9,25.3,40,20,40z M20,3.4c-4.4,0-8.6,1.7-11.7,4.9c-6.5,6.5-6.5,17,0,23.5
			c3.1,3.1,7.3,4.9,11.7,4.9c4.4,0,8.6-1.7,11.7-4.9c6.5-6.5,6.5-17,0-23.5C28.6,5.1,24.4,3.4,20,3.4z"/>
	</g>
	<g>
		<path class="st0" d="M20,40L20,40c-5.3,0-10.4-2.1-14.1-5.9c-0.5-0.5-1-1-1.4-1.5C4,32.1,4,31.3,4.3,30.7c0.5-0.8,1.1-1.4,1.8-1.8
			c2.6-1.3,5.4-2.1,8.3-2.6c-0.8-0.7-1.3-1.6-1.4-2.4c0-0.2,0-0.4-0.1-0.7c-0.7-0.3-1.2-1-1.2-1.8L11.4,18c-0.1-0.8,0.2-1.5,0.8-2
			l-0.1-0.8c-0.1-1.2-0.4-3.9,1.8-5.8C15.2,8,17.5,7.2,20,7.2c2.5,0,4.8,0.8,6.2,2.3c2.1,1.8,1.8,4.6,1.7,5.7L27.9,16
			c0.5,0.5,0.8,1.2,0.8,2l-0.3,3.3c-0.1,0.8-0.6,1.5-1.2,1.8l-0.1,0.7c-0.1,0.8-0.6,1.7-1.3,2.4c2.9,0.5,5.6,1.4,8.2,2.6
			c0.8,0.4,1.4,1,1.9,1.9c0.3,0.6,0.3,1.4-0.2,1.9c-0.4,0.5-0.9,1-1.4,1.5C30.4,37.9,25.3,40,20,40z M8.2,31.7
			C8.2,31.7,8.2,31.7,8.2,31.7c3.2,3.2,7.4,4.9,11.8,4.9c4.4,0,8.6-1.7,11.7-4.9c0,0,0,0,0.1-0.1c-2.6-1.2-5.4-2-8.4-2.3
			c-0.5-0.1-0.9-0.3-1.1-0.7c-0.3-0.4-0.4-0.8-0.3-1.3l0.3-2.3c0.1-0.5,0.4-0.9,0.8-1.2c0.3-0.2,0.5-0.4,0.5-0.5l0.2-2.1
			c0.1-0.7,0.5-1.2,1.2-1.4c0,0,0,0,0,0l0.1-1.2c0,0-0.1,0-0.1-0.1c-0.5-0.4-0.8-1-0.7-1.6l0.2-2.2c0.1-1.1,0.1-2.2-0.6-2.9
			c-0.9-0.9-2.3-1.3-3.9-1.3s-3,0.5-3.9,1.3c-0.8,0.8-0.8,1.9-0.7,3l0.2,2.2c0.1,0.6-0.2,1.2-0.7,1.6c0,0-0.1,0-0.1,0l0.1,1.2
			c0,0,0,0,0,0c0.6,0.2,1.1,0.8,1.2,1.4c0.1,0.7,0.2,1.4,0.2,2.2c0,0,0.2,0.3,0.5,0.5c0.4,0.3,0.7,0.7,0.8,1.2l0.3,2.3
			c0.1,0.5-0.1,0.9-0.3,1.3c-0.3,0.4-0.7,0.6-1.1,0.7C13.6,29.7,10.8,30.5,8.2,31.7z"/>
	</g>
</g>
</svg>
