<?xml version="1.0" encoding="utf-8"?>
<!-- Generator: Adobe Illustrator 26.0.1, SVG Export Plug-In . SVG Version: 6.00 Build 0)  -->
<svg version="1.1" id="Layer_1" xmlns="http://www.w3.org/2000/svg" xmlns:xlink="http://www.w3.org/1999/xlink" x="0px" y="0px"
	 viewBox="0 0 40 40" style="enable-background:new 0 0 40 40;" xml:space="preserve">
<style type="text/css">
	.st0{fill:#434A54;}
</style>
<g>
	<g>
		<path class="st0" d="M38.3,40H1.7C0.8,40,0,39.2,0,38.3V1.7C0,0.8,0.8,0,1.7,0h36.6C39.2,0,40,0.8,40,1.7v36.6
			C40,39.2,39.2,40,38.3,40z M3.4,36.6h33.3V3.4H3.4V36.6z"/>
	</g>
	<g>
		<path class="st0" d="M31.7,16.4h-6.5c-0.9,0-1.7-0.8-1.7-1.7c0-0.9,0.8-1.7,1.7-1.7h6.5c0.9,0,1.7,0.8,1.7,1.7
			C33.4,15.6,32.6,16.4,31.7,16.4z"/>
	</g>
	<g>
		<path class="st0" d="M14.1,16.4H8.7c-0.9,0-1.7-0.8-1.7-1.7C7,13.8,7.7,13,8.7,13h5.4c0.9,0,1.7,0.8,1.7,1.7
			C15.8,15.6,15,16.4,14.1,16.4z"/>
	</g>
	<g>
		<path class="st0" d="M14.1,28.7H8.7C7.7,28.7,7,27.9,7,27c0-0.9,0.8-1.7,1.7-1.7h5.4c0.9,0,1.7,0.8,1.7,1.7
			C15.8,27.9,15,28.7,14.1,28.7z"/>
	</g>
	<g>
		<path class="st0" d="M20.1,19.2h-5.6c-0.9,0-1.7-0.8-1.7-1.7v-5.6c0-0.9,0.8-1.7,1.7-1.7h5.6c0.9,0,1.7,0.8,1.7,1.7v5.6
			C21.8,18.4,21.1,19.2,20.1,19.2z M16.2,15.8h2.2v-2.2h-2.2V15.8z"/>
	</g>
	<g>
		<path class="st0" d="M31.7,28.7h-6.5c-0.9,0-1.7-0.8-1.7-1.7c0-0.9,0.8-1.7,1.7-1.7h6.5c0.9,0,1.7,0.8,1.7,1.7
			C33.4,27.9,32.6,28.7,31.7,28.7z"/>
	</g>
	<g>
		<path class="st0" d="M20.1,31.5h-5.6c-0.9,0-1.7-0.8-1.7-1.7v-5.6c0-0.9,0.8-1.7,1.7-1.7h5.6c0.9,0,1.7,0.8,1.7,1.7v5.6
			C21.8,30.7,21.1,31.5,20.1,31.5z M16.2,28.1h2.2v-2.2h-2.2V28.1z"/>
	</g>
	<g>
		<path class="st0" d="M7.8,28.7c-0.9,0-1.7-0.8-1.7-1.7V7.6c0-0.9,0.8-1.7,1.7-1.7c0.9,0,1.7,0.8,1.7,1.7V27
			C9.5,27.9,8.8,28.7,7.8,28.7z"/>
	</g>
</g>
</svg>
